<svg width="680" height="240" viewBox="0 0 680 240" xmlns="http://www.w3.org/2000/svg" font-family="Helvetica, Arial, sans-serif">
  <defs><marker id="arrow" viewBox="0 0 10 10" refX="8" refY="5" markerWidth="6" markerHeight="6" orient="auto-start-reverse"><path d="M2 1L8 5L2 9" fill="none" stroke="#5f5e5a" stroke-width="1.5" stroke-linecap="round" stroke-linejoin="round"/></marker></defs>
  <rect width="680" height="240" fill="#ffffff"/>

  <rect x="40" y="40" width="150" height="56" rx="8" fill="#f1efe8" stroke="#5f5e5a" stroke-width="0.5"/>
  <text x="115" y="62" text-anchor="middle" font-size="14" font-weight="600" fill="#2c2c2a">Raw email</text>
  <text x="115" y="80" text-anchor="middle" font-size="12" fill="#5f5e5a">headers, body, URLs</text>

  <rect x="250" y="40" width="180" height="56" rx="8" fill="#e6f1fb" stroke="#185fa5" stroke-width="0.5"/>
  <text x="340" y="62" text-anchor="middle" font-size="14" font-weight="600" fill="#0c447c">IOC extractor</text>
  <text x="340" y="80" text-anchor="middle" font-size="12" fill="#185fa5">deterministic, regex-based</text>

  <line x1="190" y1="68" x2="248" y2="68" stroke="#5f5e5a" stroke-width="1.5" marker-end="url(#arrow)"/>

  <rect x="480" y="40" width="160" height="56" rx="8" fill="#eeedfe" stroke="#534ab7" stroke-width="0.5"/>
  <text x="560" y="62" text-anchor="middle" font-size="14" font-weight="600" fill="#3c3489">Classifier</text>
  <text x="560" y="80" text-anchor="middle" font-size="12" fill="#534ab7">LLM or heuristic fallback</text>

  <line x1="430" y1="68" x2="478" y2="68" stroke="#5f5e5a" stroke-width="1.5" marker-end="url(#arrow)"/>

  <rect x="330" y="150" width="200" height="56" rx="8" fill="#e1f5ee" stroke="#0f6e56" stroke-width="0.5"/>
  <text x="430" y="172" text-anchor="middle" font-size="14" font-weight="600" fill="#085041">Verdict + analyst report</text>
  <text x="430" y="190" text-anchor="middle" font-size="12" fill="#0f6e56">risk score, recommended action</text>

  <path d="M560 96 V115 Q560 130 545 130 H445 Q430 130 430 138" fill="none" stroke="#5f5e5a" stroke-width="1.5" marker-end="url(#arrow)"/>
</svg>
